<?xml version="1.0" encoding="utf-8"?>
<svg version="1.0" xmlns="http://www.w3.org/2000/svg" width="450.000000pt" height="470.000000pt" viewBox="0 0 29.168 103.588" preserveAspectRatio="xMidYMid meet">
  <g transform="matrix(0.1, 0, 0, -0.1, -365.166168, 172.703705)" fill="#000000" stroke="none">
    <path d="M3746 1628 c-24 -51 -55 -125 -69 -164 l-25 -71 5 -309 c6 -347 2 -328 87 -371 l48 -24 52 21 c88 38 83 15 87 381 l4 324 -63 147 c-35 82 -68 151 -73 154 -5 3 -29 -36 -53 -88z m104 -221 c0 -18 -4 -37 -8 -44 -4 -6 -7 10 -7 37 0 26 3 46 8 43 4 -2 7 -19 7 -36z m-98 -6 c2 -22 0 -37 -4 -35 -8 5 -11 74 -4 74 2 0 6 -18 8 -39z m33 -21 c-5 -49 -4 -60 9 -60 8 0 16 12 19 28 4 25 4 25 6 -5 1 -29 -2 -33 -25 -33 -25 0 -26 1 -20 53 3 28 5 58 6 65 0 6 2 12 6 12 3 0 2 -27 -1 -60z m27 35 c3 -14 2 -27 -1 -30 -4 -2 -8 10 -9 26 -3 36 4 38 10 4z m-86 -134 c-31 -32 -37 -44 -34 -72 l3 -34 100 0 100 0 3 34 c3 28 -3 41 -35 75 l-38 41 43 -40 c44 -41 56 -87 30 -113 -16 -16 -190 -16 -206 0 -24 24 -14 70 25 110 20 21 39 38 42 38 3 0 -12 -17 -33 -39z m145 -141 c10 -6 19 -18 18 -28 0 -14 -2 -14 -6 -2 -10 25 -25 30 -94 30 -59 0 -67 -3 -77 -22 -7 -15 -11 -18 -11 -7 -1 8 4 20 11 27 15 15 132 16 159 2z m-5 -98 l1 -42 -4 39 -4 40 -62 4 -62 3 65 0 65 -1 1 -43z m-65 -72 c32 0 60 5 62 10 3 6 4 5 3 -2 -4 -20 -138 -18 -144 2 -4 12 -2 13 9 3 7 -7 38 -13 70 -13z m-51 -80 c0 -29 2 -30 45 -30 43 0 45 1 45 30 0 26 3 30 28 29 23 -2 24 -2 5 -6 -18 -3 -23 -11 -23 -34 0 -29 -1 -29 -55 -29 -54 0 -55 0 -55 29 0 23 -5 31 -22 34 -20 4 -19 4 5 6 24 1 27 -3 27 -29z m15 -89 c0 -16 -3 -27 -7 -24 -13 7 -7 53 6 53 1 0 1 -13 1 -29z m75 -1 c0 -10 -10 -31 -23 -46 -22 -25 -23 -25 -37 -8 -14 17 -13 18 2 6 14 -12 19 -10 33 12 10 14 15 35 12 46 -3 11 -1 18 4 14 5 -3 9 -14 9 -24z"/>
  </g>
</svg>