<?xml version="1.0" encoding="utf-8"?>
<svg version="1.0" xmlns="http://www.w3.org/2000/svg" width="450.000000pt" height="470.000000pt" viewBox="0 0 40.729 150.601" preserveAspectRatio="xMidYMid meet">
  <g transform="matrix(0.1, 0, 0, -0.1, -313.734009, 265.421539)" fill="#000000" stroke="none">
    <path d="M3317 2618 c-24 -39 -112 -190 -145 -249 l-32 -56 0 -417 0 -417 25 -44 c16 -26 33 -83 45 -145 29 -154 17 -140 126 -140 52 0 94 2 94 4 0 16 42 218 51 248 7 21 20 45 31 54 17 16 18 41 18 433 l0 415 -96 168 c-53 92 -98 168 -100 168 -2 0 -10 -10 -17 -22z m-90 -460 c19 -18 34 -78 19 -78 -2 0 -13 -3 -23 -6 -17 -5 -17 -5 0 6 9 6 17 21 17 34 0 28 -34 61 -51 50 -8 -4 -10 -3 -5 4 10 17 16 15 43 -10z m262 -2 c27 -29 26 -80 -2 -82 -12 -1 -13 -1 -2 3 22 7 19 57 -5 78 -20 18 -21 18 -35 -1 -19 -25 -19 -71 0 -77 11 -4 10 -4 -2 -3 -25 2 -29 48 -7 80 20 32 25 32 53 2z m-317 -37 c-3 -20 1 -35 9 -41 12 -8 11 -9 -1 -5 -16 4 -25 39 -16 63 9 24 13 16 8 -17z m138 -115 l0 -56 29 4 c17 2 28 1 25 -4 -3 -4 -18 -8 -35 -8 -29 0 -29 1 -31 58 l-2 57 -3 -57 c-2 -32 -7 -58 -11 -58 -4 0 -5 27 -4 60 3 43 8 60 18 60 10 0 14 -14 14 -56z m76 20 c2 -29 2 -29 -3 -1 -5 33 -23 36 -24 5 0 -13 -3 -17 -6 -10 -7 19 5 44 20 40 6 -3 13 -18 13 -34z m-186 -152 c1 -77 1 -77 19 -54 11 12 23 22 27 22 4 0 -3 -11 -16 -25 -22 -23 -24 -34 -28 -185 -4 -139 -7 -160 -21 -160 -12 0 -13 2 -3 8 10 7 12 61 10 244 -2 130 0 234 5 231 4 -2 7 -39 7 -81z m300 -163 c0 -201 -2 -239 -14 -239 -8 0 -18 4 -21 10 -3 6 1 7 10 4 14 -6 15 18 13 234 -2 132 0 238 5 235 4 -2 7 -112 7 -244z m-260 211 c-21 -21 -27 -55 -10 -63 6 -3 5 -4 -2 -3 -7 1 -14 10 -16 20 -4 19 23 66 38 66 6 0 1 -9 -10 -20z m196 -2 l19 -23 -25 20 c-14 11 -27 21 -29 22 -2 2 0 3 6 3 5 0 18 -10 29 -22z m30 -53 c1 -8 -2 -13 -7 -9 -5 3 -9 12 -9 21 0 19 13 9 16 -12z m-31 -15 c-3 -6 3 -22 14 -36 21 -26 29 -84 13 -84 -5 0 -7 13 -4 28 2 18 -4 37 -16 52 -18 22 -31 26 -104 31 l-83 6 83 -1 c45 0 82 2 82 7 0 4 5 7 11 7 5 0 7 -5 4 -10z m-165 -130 c0 -18 7 -20 65 -20 58 0 65 2 65 20 0 13 7 20 20 20 14 0 18 -5 13 -17 -5 -12 -2 -15 14 -11 14 4 19 0 18 -13 -2 -24 -15 -38 -15 -16 0 10 -6 17 -14 17 -8 0 -17 8 -19 18 -4 13 -5 11 -6 -5 -1 -22 -5 -23 -76 -23 -67 0 -75 2 -75 19 0 11 -8 22 -17 24 -14 4 -12 5 5 6 16 1 22 -5 22 -19z m-40 -20 c-23 -14 -1 -63 35 -75 36 -12 45 -22 45 -55 0 -19 -3 -21 -9 -11 -5 8 -7 19 -5 26 3 7 -7 10 -32 7 l-37 -5 7 -81 c3 -44 6 -102 6 -128 0 -50 19 -68 21 -20 2 26 2 26 6 2 3 -13 14 -35 24 -49 10 -13 18 -33 18 -45 -1 -20 -2 -20 -6 -1 -7 29 -33 55 -55 55 -15 0 -18 8 -18 43 0 23 -3 86 -7 140 l-6 97 39 0 39 1 -32 14 c-34 14 -53 41 -53 74 0 13 6 21 18 21 14 0 15 -2 2 -10z m214 -54 c-3 -8 -13 -17 -22 -21 -13 -5 -13 -2 3 15 21 24 26 25 19 6z m-44 -30 c0 -2 -9 -6 -20 -9 -11 -3 -18 -1 -14 4 5 9 34 13 34 5z m45 -148 c-4 -73 -9 -136 -12 -140 -2 -5 -12 -8 -22 -8 -29 0 -41 -22 -41 -72 0 -36 -4 -48 -15 -48 -8 0 -15 5 -15 11 0 5 5 7 10 4 6 -4 10 11 10 38 0 32 6 49 20 62 12 11 20 28 18 39 -3 18 -12 22 -63 27 l-60 6 56 1 c57 2 79 -9 79 -40 0 -10 5 -18 10 -18 6 0 10 21 10 48 0 26 3 84 7 130 l6 82 -30 0 c-19 0 -33 -6 -37 -16 -4 -9 -9 -14 -13 -11 -13 14 21 37 54 37 l35 0 -7 -132z m-114 -5 c1 -17 2 -17 6 0 2 9 11 17 19 17 11 0 14 -10 12 -37 -3 -35 -6 -38 -35 -41 -32 -3 -33 -2 -33 37 0 30 4 41 15 41 8 0 16 -8 16 -17z m-1 -218 c0 -33 -4 -45 -15 -45 -9 0 -15 9 -14 23 0 21 1 21 9 2 7 -15 9 -10 9 23 1 23 3 42 6 42 3 0 5 -20 5 -45z m17 13 c-3 -7 -5 -2 -5 12 0 14 2 19 5 13 2 -7 2 -19 0 -25z"/>
    <path d="M3311 1443 c-1 -29 2 -33 24 -33 22 0 25 4 24 33 -1 29 -2 29 -8 8 -9 -35 -29 -37 -34 -4 -4 27 -4 27 -6 -4z"/>
  </g>
</svg>