<?xml version="1.0" encoding="utf-8"?>
<svg version="1.0" xmlns="http://www.w3.org/2000/svg" width="450.000000pt" height="470.000000pt" viewBox="0 -159.821 31.946 303.692" preserveAspectRatio="xMidYMid meet">
  <g transform="matrix(0.099668, 0, 0, -0.216251, -313.050629, 754.488831)" fill="#000000" stroke="none" style="">
    <path d="M3278 4198 c-32 -49 -62 -117 -94 -212 l-34 -100 0 -323 0 -324 36 -182 c19 -100 38 -192 41 -204 5 -21 11 -23 73 -23 62 0 68 2 73 23 3 12 22 104 42 203 l36 182 -3 343 -3 344 -65 144 c-36 80 -70 146 -76 148 -6 2 -18 -7 -26 -19z m37 -88 c3 -6 -1 -7 -9 -4 -18 7 -21 14 -7 14 6 0 13 -4 16 -10z m55 -94 c0 -12 -5 -7 -19 24 -11 24 -11 24 3 6 9 -11 16 -24 16 -30z m-80 -60 c0 -2 -7 -7 -16 -10 -8 -3 -12 -2 -9 4 6 10 25 14 25 6z m41 -69 c-10 -9 -11 -8 -5 6 3 10 9 15 12 12 3 -3 0 -11 -7 -18z m86 -64 c-3 -10 -5 -2 -5 17 0 19 2 27 5 18 2 -10 2 -26 0 -35z m-129 16 c3 -11 2 -11 -7 1 -8 12 -11 5 -11 -28 0 -36 -4 -44 -24 -52 -13 -5 -26 -14 -29 -20 -3 -6 -4 -5 -3 2 1 7 12 17 24 23 18 8 22 18 22 53 0 29 4 42 12 40 6 -2 13 -11 16 -19z m45 -32 c3 -8 1 -20 -4 -28 -6 -10 -9 -7 -9 14 0 29 5 35 13 14z m48 -54 c13 -17 13 -17 -6 -3 -11 8 -22 16 -24 17 -2 2 0 3 6 3 6 0 17 -8 24 -17z m16 -105 c-2 -18 -4 -6 -4 27 0 33 2 48 4 33 2 -15 2 -42 0 -60z m-194 -165 c-4 -246 -5 -263 -23 -263 -7 0 -9 70 -8 208 l2 207 6 -205 6 -205 2 180 c2 158 10 315 17 315 1 0 1 -107 -2 -237z m174 0 c-2 -27 -3 -5 -3 47 0 52 1 74 3 48 2 -27 2 -69 0 -95z m-64 80 c-7 -2 -19 -2 -25 0 -7 3 -2 5 12 5 14 0 19 -2 13 -5z m-86 -65 c-3 -8 -6 -5 -6 6 -1 11 2 17 5 13 3 -3 4 -12 1 -19z m105 -37 c2 -22 0 -37 -4 -35 -8 5 -11 74 -4 74 2 0 6 -18 8 -39z m-59 -41 c-3 -12 -8 -19 -11 -16 -5 6 5 36 12 36 2 0 2 -9 -1 -20z m106 -34 c-22 -20 -23 -20 -6 0 9 11 18 29 18 40 1 18 2 18 6 0 3 -11 -4 -27 -18 -40z m-44 14 c-3 -5 -18 -9 -33 -9 l-27 1 30 8 c17 4 31 8 33 9 2 0 0 -3 -3 -9z m-104 -17 c13 -16 12 -17 -3 -4 -17 13 -22 21 -14 21 2 0 10 -8 17 -17z m112 -20 c-7 -2 -13 -12 -13 -20 0 -9 -3 -14 -6 -10 -10 10 4 37 18 36 10 0 10 -2 1 -6z m-114 -265 l1 -117 28 -4 c25 -4 25 -4 -5 -6 l-33 -1 0 98 c0 55 -2 135 -4 178 -4 70 -4 73 4 24 4 -30 8 -108 9 -172z m49 197 c-3 -3 -9 2 -12 12 -6 14 -5 15 5 6 7 -7 10 -15 7 -18z m60 6 c-7 -9 -14 -18 -15 -20 -2 -2 -3 5 -3 16 0 11 7 20 15 20 12 0 12 -3 3 -16z m49 -58 c-2 -16 -4 -3 -4 27 0 30 2 43 4 28 2 -16 2 -40 0 -55z m-81 -48 c3 -22 -13 -9 -19 16 -4 16 -3 19 5 11 7 -7 13 -19 14 -27z m24 -26 c0 -45 -2 -49 -24 -49 -14 0 -27 4 -30 9 -3 4 6 6 20 3 26 -5 26 -4 23 46 -2 27 -1 48 4 45 4 -2 7 -26 7 -54z m0 -94 c0 -20 -5 -25 -24 -25 -14 0 -28 5 -31 10 -12 19 4 40 30 40 20 0 25 -5 25 -25z m0 -69 c0 -15 7 -26 18 -29 13 -3 12 -4 -3 -3 -13 1 -21 9 -23 25 -3 18 -8 22 -28 18 -13 -2 -21 0 -18 4 3 5 16 9 30 9 19 0 24 -5 24 -24z"/>
    <path d="M3280 3075 c0 -8 9 -15 20 -15 11 0 20 7 20 15 0 8 -9 15 -20 15 -11 0 -20 -7 -20 -15z"/>
  </g>
</svg>