<?xml version="1.0" encoding="utf-8"?>
<svg version="1.0" xmlns="http://www.w3.org/2000/svg" width="450.000000pt" height="470.000000pt" viewBox="0 0 44.271 246.757" preserveAspectRatio="xMidYMid meet">
  <g transform="matrix(0.1, 0, 0, -0.1, -356.371124, 425.897186)" fill="#000000" stroke="none">
    <path d="M3751 4248 c-5 -13 -46 -108 -91 -213 l-82 -190 7 -401 c5 -293 4 -403 -4 -408 -14 -9 -15 -176 -1 -176 6 0 10 -11 10 -24 0 -14 -4 -28 -10 -31 -14 -9 -13 -178 1 -192 7 -7 22 -142 36 -330 l25 -318 42 -80 41 -80 56 -1 57 0 41 85 41 86 25 315 c20 248 28 317 40 326 11 8 15 32 15 92 0 44 -4 84 -10 87 -5 3 -10 17 -10 30 0 13 5 27 10 30 14 9 13 172 -1 181 -9 5 -10 112 -5 413 l8 406 -92 208 c-83 187 -94 207 -116 207 -16 0 -28 -8 -33 -22z m-40 -295 c-32 -44 -63 -79 -55 -63 10 19 66 90 71 90 3 0 -5 -12 -16 -27z m154 -3 c10 -11 16 -20 13 -20 -3 0 -13 9 -23 20 -10 11 -16 20 -13 20 3 0 13 -9 23 -20z m-25 -52 c16 -18 30 -37 30 -41 0 -4 -14 8 -31 28 -37 41 -71 45 -108 13 l-26 -23 24 28 c34 38 73 36 111 -5z m80 -59 c0 -47 -1 -49 -27 -48 -24 2 -25 2 -5 6 19 4 22 11 22 47 0 23 -6 48 -12 56 -11 12 -10 12 5 1 12 -10 17 -27 17 -62z m-218 -9 c-4 -36 -7 -40 -31 -39 -23 2 -24 2 -3 6 16 3 22 11 22 32 0 22 7 41 14 41 1 0 0 -18 -2 -40z m27 -140 c0 -10 -3 -8 -9 5 -8 19 -9 19 -9 1 -1 -11 -4 -17 -7 -13 -3 3 -3 15 1 28 6 17 9 19 16 8 5 -8 8 -21 8 -29z m46 -5 c-8 -22 -14 -32 -15 -23 0 20 19 72 25 67 2 -3 -2 -23 -10 -44z m85 30 c0 -8 -4 -15 -10 -15 -5 0 -10 7 -10 15 0 8 5 15 10 15 6 0 10 -7 10 -15z m-63 -67 c-2 -13 -4 -5 -4 17 -1 22 1 32 4 23 2 -10 2 -28 0 -40z m40 -10 c-2 -13 -4 -5 -4 17 -1 22 1 32 4 23 2 -10 2 -28 0 -40z m30 0 c-2 -13 -4 -5 -4 17 -1 22 1 32 4 23 2 -10 2 -28 0 -40z m-167 -43 c-7 -45 -7 -46 -9 -13 -1 32 8 74 14 66 1 -2 -1 -25 -5 -53z m47 15 c2 -2 8 2 13 10 8 13 10 12 10 -2 0 -11 -8 -18 -20 -18 -11 0 -20 4 -20 9 0 5 -3 18 -6 28 -5 15 -3 15 7 -2 6 -11 14 -22 16 -25z m-92 0 c3 -6 -1 -7 -9 -4 -18 7 -21 14 -7 14 6 0 13 -4 16 -10z m175 -6 c0 -2 -7 -4 -15 -4 -8 0 -15 4 -15 10 0 5 7 7 15 4 8 -4 15 -8 15 -10z m93 9 c-19 -7 -16 -40 5 -53 10 -7 11 -10 3 -7 -33 8 -41 68 -9 66 10 0 10 -2 1 -6z m-56 -35 c-3 -8 -6 -5 -6 6 -1 11 2 17 5 13 3 -3 4 -12 1 -19z m95 -10 c-8 -8 -9 -4 -5 13 4 13 8 18 11 10 2 -7 -1 -18 -6 -23z m-328 -17 c-2 -3 -12 3 -22 13 -16 17 -16 18 5 5 12 -7 20 -15 17 -18z m83 -58 c-2 -16 -4 -5 -4 22 0 28 2 40 4 28 2 -13 2 -35 0 -50z m153 63 c0 -3 -4 -8 -10 -11 -5 -3 -10 -1 -10 4 0 6 5 11 10 11 6 0 10 -2 10 -4z m-231 -19 c-2 -1 -13 -9 -24 -17 -19 -14 -19 -14 -6 3 7 9 18 17 24 17 6 0 8 -1 6 -3z m322 -13 c17 -21 0 -49 -32 -49 -27 0 -37 28 -19 50 16 19 34 19 51 -1z m-308 -46 c-2 -5 -13 -8 -23 -8 -10 0 -21 3 -23 8 -3 4 8 7 23 7 15 0 26 -3 23 -7z m197 -3 c-9 -11 -29 -14 -69 -13 l-56 2 55 3 c30 2 59 8 65 14 15 15 19 10 5 -6z m24 -51 c5 -14 4 -15 -8 -5 -10 8 -42 11 -95 9 -43 -2 -77 0 -74 5 2 4 42 7 88 7 68 0 84 -3 89 -16z m-193 -31 c-5 -10 -17 -27 -26 -38 -16 -19 -17 -19 -3 5 26 46 29 50 34 50 3 0 0 -8 -5 -17z m50 -36 c-10 -9 -11 -8 -5 6 3 10 9 15 12 12 3 -3 0 -11 -7 -18z m109 3 c6 -11 8 -20 6 -20 -3 0 -10 9 -16 20 -6 11 -8 20 -6 20 3 0 10 -9 16 -20z m-130 -39 c-5 -11 -10 -43 -10 -71 l0 -51 -47 3 c-47 3 -48 4 -49 38 l-2 35 5 -32 c4 -31 7 -33 44 -33 l39 0 0 41 0 41 -44 -3 c-24 -2 -42 -1 -39 4 2 4 22 7 43 7 29 0 42 5 50 20 6 11 13 20 16 20 2 0 0 -9 -6 -19z m248 -71 l-3 -45 -44 0 c-28 0 -45 5 -47 13 -1 7 0 8 3 2 2 -5 22 -10 44 -10 39 0 39 0 39 40 0 40 0 40 -39 40 -22 0 -42 3 -45 8 -2 4 14 6 36 4 39 -4 40 -4 28 19 -11 24 -11 24 9 -1 16 -19 20 -37 19 -70z m-119 27 c-1 -20 -2 -20 -9 3 -6 18 -8 7 -9 -42 -1 -38 -5 -68 -11 -68 -5 0 -10 14 -10 31 0 28 -3 31 -25 27 -13 -3 -22 -1 -19 3 3 5 16 9 30 9 20 0 24 5 24 28 0 16 3 32 6 35 12 11 24 -3 23 -26z m-82 -9 c-3 -7 -5 -2 -5 12 0 14 2 19 5 13 2 -7 2 -19 0 -25z m-20 -40 c-2 -13 -4 -5 -4 17 -1 22 1 32 4 23 2 -10 2 -28 0 -40z m130 20 c-3 -7 -5 -2 -5 12 0 14 2 19 5 13 2 -7 2 -19 0 -25z m-25 -67 c2 -17 1 -28 -4 -25 -8 5 -12 54 -4 54 2 0 6 -13 8 -29z m-117 -28 c-3 -16 -10 -32 -15 -37 -5 -5 -4 7 2 27 13 43 23 50 13 10z m142 -80 c-3 -10 -5 -4 -5 12 0 17 2 24 5 18 2 -7 2 -21 0 -30z m-97 -70 c0 -7 -58 36 -66 49 -4 7 9 -1 29 -16 20 -16 37 -30 37 -33z m65 22 c-16 -13 -27 -26 -25 -28 3 -2 14 -10 25 -16 17 -10 17 -12 2 -7 -10 3 -23 6 -28 6 -21 0 -7 40 19 53 39 21 41 19 7 -8z m-85 -42 c-8 -3 -22 -11 -30 -17 -13 -10 -13 -9 -1 7 7 9 21 17 30 16 13 0 14 -1 1 -6z m122 -80 c6 -13 8 -26 5 -30 -4 -3 -7 0 -8 8 -1 8 -4 3 -8 -11 -8 -28 -41 -41 -41 -16 0 9 7 16 15 16 11 0 15 12 16 48 1 26 3 38 6 27 2 -11 9 -30 15 -42z m-144 -33 c15 0 15 -2 2 -10 -13 -9 -13 -10 0 -10 10 0 11 -3 4 -8 -7 -4 -14 -16 -17 -27 -3 -13 -5 -8 -6 13 0 18 -5 41 -10 50 -5 10 -6 31 -3 47 7 28 7 27 10 -12 2 -32 7 -43 20 -43z m53 13 c-8 -15 -10 -15 -11 -2 0 17 10 32 18 25 2 -3 -1 -13 -7 -23z m-99 -35 c-8 -8 -9 -4 -5 13 4 13 8 18 11 10 2 -7 -1 -18 -6 -23z m115 10 c-3 -8 -6 -5 -6 6 -1 11 2 17 5 13 3 -3 4 -12 1 -19z m-30 -60 c-2 -13 -4 -3 -4 22 0 25 2 35 4 23 2 -13 2 -33 0 -45z m153 -83 c0 -88 -3 -115 -15 -125 -16 -13 -195 -30 -195 -18 0 4 -12 8 -27 10 -14 2 -28 9 -29 16 -1 7 0 8 3 2 2 -5 11 -10 19 -10 10 0 14 13 14 45 0 25 -4 45 -10 45 -6 0 -9 23 -8 53 l1 52 7 -50 c4 -27 8 -45 10 -40 2 6 6 -17 9 -50 l6 -60 78 -3 c42 -2 77 1 77 6 0 5 10 8 23 8 21 -1 22 2 25 108 3 116 -6 168 -18 106 l-7 -35 -2 44 c-1 43 -1 44 19 26 18 -16 20 -31 20 -130z m-65 65 c-9 -41 -17 -33 -9 9 4 17 9 30 11 27 3 -2 2 -19 -2 -36z m-31 -32 c8 -5 7 -8 -2 -8 -12 0 -33 41 -31 63 0 7 5 -1 11 -18 6 -16 16 -33 22 -37z m73 0 c-3 -8 -6 -5 -6 6 -1 11 2 17 5 13 3 -3 4 -12 1 -19z m-162 2 c3 -5 1 -10 -4 -10 -6 0 -11 5 -11 10 0 6 2 10 4 10 3 0 8 -4 11 -10z m165 -55 c0 -8 -7 -15 -15 -15 -8 0 -15 5 -15 11 0 5 5 7 10 4 6 -3 10 -1 10 4 0 6 2 11 5 11 3 0 5 -7 5 -15z m-173 -167 c-3 -8 -6 -5 -6 6 -1 11 2 17 5 13 3 -3 4 -12 1 -19z m120 -20 c-3 -8 -6 -5 -6 6 -1 11 2 17 5 13 3 -3 4 -12 1 -19z m-130 -30 c-3 -7 -5 -2 -5 12 0 14 2 19 5 13 2 -7 2 -19 0 -25z m-17 -3 c0 -8 6 -15 13 -15 9 0 9 -2 0 -8 -9 -5 -13 -51 -16 -147 l-3 -140 -2 159 c-2 153 -3 158 -22 153 -11 -3 -20 -1 -20 4 0 5 11 9 25 9 16 0 25 -6 25 -15z m159 -23 c-5 -2 -10 -38 -11 -80 -1 -67 -2 -70 -6 -22 -4 71 7 154 18 125 4 -11 3 -21 -1 -23z m59 -138 c2 -154 1 -173 -15 -185 -15 -11 -16 -11 -5 1 8 10 12 62 12 181 0 166 0 168 -22 172 -20 5 -20 5 2 4 l25 -2 3 -171z m-101 -1 c-4 -3 1 -12 11 -19 14 -10 15 -15 4 -26 -11 -11 -12 -10 -7 5 5 11 2 17 -8 17 -8 0 -17 6 -20 13 -3 9 -13 7 -38 -6 -20 -11 -26 -12 -16 -4 14 11 15 16 5 20 -7 3 7 6 31 6 24 1 41 -2 38 -6z m-57 -63 c0 -5 -5 -10 -11 -10 -5 0 -7 5 -4 10 3 6 8 10 11 10 2 0 4 -4 4 -10z m80 -20 c0 -5 -5 -12 -12 -16 -7 -5 -8 -3 -4 5 5 7 0 19 -10 27 -18 14 -18 14 4 4 12 -6 22 -15 22 -20z m-80 -30 c0 -5 -8 -10 -17 -10 -15 0 -16 2 -3 10 19 12 20 12 20 0z m80 -20 c0 -25 -71 -39 -100 -20 -11 7 -4 9 25 5 22 -3 47 -1 55 4 13 9 12 12 -5 26 -20 16 -19 16 3 5 12 -6 22 -15 22 -20z m4 -45 c-14 -19 -34 -35 -43 -34 -14 0 -14 1 1 7 9 4 26 19 38 35 12 15 24 27 26 27 3 0 -7 -16 -22 -35z m-108 -7 l29 -33 -32 29 c-18 17 -33 31 -33 33 0 8 8 1 36 -29z m-51 -18 c10 -11 16 -20 13 -20 -3 0 -13 9 -23 20 -10 11 -16 20 -13 20 3 0 13 -9 23 -20z m205 -3 c0 -2 -10 -12 -22 -23 l-23 -19 19 23 c18 21 26 27 26 19z m-97 -55 c31 1 53 0 50 -4 -2 -5 -28 -8 -57 -8 -43 0 -57 4 -72 23 l-19 22 22 -18 c17 -15 34 -18 76 -15z"/>
    <path d="M3917 3524 c-4 -4 -7 -16 -7 -26 0 -14 6 -19 23 -16 14 2 22 10 22 23 0 20 -25 32 -38 19z"/>
  </g>
</svg>