<?xml version="1.0" encoding="utf-8"?>
<svg version="1.0" xmlns="http://www.w3.org/2000/svg" width="450.000000pt" height="470.000000pt" viewBox="0 0 66.259 255.452" preserveAspectRatio="xMidYMid meet">
  <g transform="matrix(0, -0.073843, -0.061814, 0, -1734.806152, -637.911987)" fill="#000000" stroke="none" style="transform-origin: 1767.9px 769.523px;">
    <path d="M2845 1289 c-298 -31 -2132 -209 -2154 -209 -18 0 -21 -6 -21 -49 0 -58 18 -50 -190 -87 -155 -27 -155 -27 -267 -92 -108 -63 -132 -89 -103 -107 13 -8 13 -72 0 -80 -21 -13 -8 -46 55 -141 53 -82 65 -106 65 -141 l0 -41 73 -6 c39 -3 128 -8 197 -11 69 -3 328 -14 575 -25 248 -11 720 -31 1049 -45 l600 -25 290 151 c159 83 317 167 351 185 l62 34 7 90 c4 49 4 100 1 113 -5 20 -40 41 -191 113 l-184 89 0 153 c0 138 -2 152 -17 151 -10 -1 -99 -10 -198 -20z m155 -139 c0 -5 -12 -10 -27 -10 -16 0 -38 -3 -50 -6 -13 -4 -23 -2 -23 4 0 10 27 17 78 21 12 0 22 -3 22 -9z m-155 -20 c-29 -12 -98 -12 -90 0 3 6 30 10 58 9 38 0 47 -3 32 -9z m-135 -10 c0 -5 -15 -10 -34 -10 -19 0 -41 -3 -50 -6 -9 -3 -16 -1 -16 4 0 11 26 18 73 21 15 0 27 -3 27 -9z m-146 -9 c6 -8 -39 -21 -75 -21 -35 0 -19 19 19 23 20 2 40 4 44 5 4 1 9 -2 12 -7z m-144 -20 c0 -5 -23 -11 -50 -13 -47 -3 -65 4 -37 15 21 9 87 7 87 -2z m-140 -10 c0 -4 -17 -11 -37 -15 -53 -8 -73 -7 -73 3 0 9 17 12 93 19 9 1 17 -2 17 -7z m-1395 -21 c-3 -5 -44 -10 -91 -10 -49 0 -84 -4 -84 -10 0 -6 31 -10 73 -10 119 0 287 12 287 21 0 5 -38 10 -85 12 l-85 3 87 0 88 -1 2 -32 c2 -26 -1 -33 -15 -32 -10 0 -12 3 -4 6 39 16 -5 21 -135 17 -165 -6 -213 -11 -213 -24 0 -4 71 -7 158 -5 l157 4 -150 -9 c-82 -5 -156 -7 -163 -5 -8 3 -12 17 -10 37 l3 33 90 6 c50 3 91 6 93 7 2 1 0 -2 -3 -8z m1245 0 c0 -5 -23 -10 -51 -10 -31 0 -48 4 -44 10 3 6 26 10 51 10 24 0 44 -4 44 -10z m-140 -9 c0 -10 -91 -22 -105 -13 -5 4 6 10 25 13 54 10 80 10 80 0z m-160 -21 c-20 -13 -90 -13 -90 -1 0 9 89 20 100 13 2 -2 -2 -7 -10 -12z m-130 -9 c0 -10 -90 -21 -105 -12 -5 3 1 8 15 12 37 10 90 10 90 0z m-152 -16 c-11 -11 -98 -17 -98 -7 0 6 21 12 48 14 48 3 59 2 50 -7z m1485 -2 c-13 -2 -35 -2 -50 0 -16 2 -5 4 22 4 28 0 40 -2 28 -4z m-1623 -12 c0 -11 -100 -19 -106 -9 -6 10 17 16 64 17 23 1 42 -3 42 -8z m1523 2 c-13 -2 -35 -2 -50 0 -16 2 -5 4 22 4 28 0 40 -2 28 -4z m-1673 -12 c0 -9 -47 -21 -81 -21 -35 0 -19 19 19 23 20 2 43 4 50 5 6 1 12 -2 12 -7z m1573 2 c-13 -2 -35 -2 -50 0 -16 2 -5 4 22 4 28 0 40 -2 28 -4z m-100 -10 c-13 -2 -35 -2 -50 0 -16 2 -5 4 22 4 28 0 40 -2 28 -4z m-105 -10 c-16 -2 -40 -2 -55 0 -16 2 -3 4 27 4 30 0 43 -2 28 -4z m-105 -10 c-13 -2 -35 -2 -50 0 -16 2 -5 4 22 4 28 0 40 -2 28 -4z m-100 -10 c-13 -2 -35 -2 -50 0 -16 2 -5 4 22 4 28 0 40 -2 28 -4z m-100 -10 c-13 -2 -35 -2 -50 0 -16 2 -5 4 22 4 28 0 40 -2 28 -4z m-100 -10 c-13 -2 -35 -2 -50 0 -16 2 -5 4 22 4 28 0 40 -2 28 -4z m-100 -10 c-13 -2 -35 -2 -50 0 -16 2 -5 4 22 4 28 0 40 -2 28 -4z m-100 -10 c-13 -2 -35 -2 -50 0 -16 2 -5 4 22 4 28 0 40 -2 28 -4z m-100 -10 c-13 -2 -35 -2 -50 0 -16 2 -5 4 22 4 28 0 40 -2 28 -4z m-100 -10 c-13 -2 -35 -2 -50 0 -16 2 -5 4 22 4 28 0 40 -2 28 -4z m-105 -10 c-16 -2 -40 -2 -55 0 -16 2 -3 4 27 4 30 0 43 -2 28 -4z m-105 -10 c-13 -2 -35 -2 -50 0 -16 2 -5 4 22 4 28 0 40 -2 28 -4z m-100 -10 c-13 -2 -35 -2 -50 0 -16 2 -5 4 22 4 28 0 40 -2 28 -4z m-100 -10 c-13 -2 -35 -2 -50 0 -16 2 -5 4 22 4 28 0 40 -2 28 -4z m-100 -10 c-13 -2 -35 -2 -50 0 -16 2 -5 4 22 4 28 0 40 -2 28 -4z m767 -34 c-10 -23 -10 -23 -6 -1 2 12 -1 22 -7 22 -7 0 -5 5 3 10 19 12 23 0 10 -31z m227 -34 c-11 -41 -22 -73 -24 -71 -2 2 3 31 11 64 20 76 20 75 -6 67 -18 -5 -20 -4 -8 4 8 6 22 11 31 11 14 0 14 -8 -4 -75z m-1280 -308 c-1 -67 -3 -9 -3 128 0 138 2 192 3 122 2 -71 2 -183 0 -250z m191 366 c-10 -2 -28 -2 -40 0 -13 2 -5 4 17 4 22 1 32 -1 23 -4z m622 -53 c-7 -28 -14 -49 -17 -46 -2 2 0 21 6 42 6 21 9 39 7 41 -1 2 -54 -15 -116 -37 -62 -22 -110 -37 -106 -32 8 8 229 90 235 86 2 -2 -2 -26 -9 -54z m-1287 43 c-24 -2 -62 -2 -85 0 -24 2 -5 4 42 4 47 0 66 -2 43 -4z m336 3 c-8 -8 -148 -11 -155 -3 -4 4 30 7 76 7 46 0 81 -2 79 -4z m723 -23 c-4 -20 -7 -23 -10 -10 -4 20 -2 21 -129 -25 -96 -34 -108 -55 -35 -61 l47 -3 -52 -2 c-49 -2 -53 0 -53 21 0 20 14 28 118 64 64 23 118 42 118 42 1 1 -1 -11 -4 -26z m428 18 c-8 -5 -52 -21 -97 -36 -97 -32 -111 -55 -33 -55 l50 0 -15 -24 c-10 -16 -22 -22 -35 -19 -10 3 -27 0 -37 -6 -12 -7 -13 -10 -4 -11 16 0 87 -70 71 -70 -6 0 -13 7 -16 15 -4 8 -12 15 -20 15 -8 0 -14 6 -14 14 0 7 -10 17 -22 20 -23 6 -23 7 -4 21 11 8 30 15 42 15 13 0 26 5 29 10 4 6 -12 10 -40 10 -42 0 -46 2 -43 22 2 18 20 28 93 54 89 33 124 41 95 25z m220 5 c0 -2 -36 -16 -80 -31 -92 -31 -108 -55 -35 -55 25 0 45 -3 45 -7 -1 -14 -27 -43 -33 -37 -3 4 -19 3 -34 -1 -26 -6 -27 -7 -8 -17 11 -6 30 -23 42 -36 l21 -25 5 24 c4 22 4 22 6 -3 1 -38 -10 -35 -58 11 -39 38 -40 41 -22 50 11 6 29 11 40 11 11 0 23 5 26 10 4 6 -12 10 -40 10 -42 0 -46 2 -43 23 2 18 18 27 78 49 77 28 90 31 90 24z m-894 -62 c-8 -27 -15 -41 -15 -32 -1 9 3 28 9 42 5 15 6 26 1 26 -5 0 -55 -16 -110 -36 -107 -39 -127 -60 -63 -67 l37 -4 -40 1 c-32 1 -41 5 -43 21 -2 17 14 26 115 61 65 23 119 40 121 39 2 -2 -3 -25 -12 -51z m688 -58 c-9 -37 -19 -65 -21 -62 -2 2 0 21 5 42 6 22 13 52 16 68 4 15 9 26 12 23 3 -2 -3 -34 -12 -71z m-465 10 c-6 -26 -13 -45 -16 -43 -2 3 1 26 8 51 6 26 13 45 16 43 2 -3 -1 -26 -8 -51z m120 -17 c-6 -12 -20 -19 -39 -19 -16 0 -32 -4 -35 -10 -3 -5 -1 -10 4 -10 6 0 24 -14 41 -31 l30 -32 0 35 c0 32 14 58 32 58 4 0 7 -12 7 -27 -2 -24 -2 -25 -6 -5 -6 33 -23 16 -23 -23 0 -19 -4 -36 -9 -40 -6 -3 -29 13 -53 35 -45 43 -42 59 9 60 12 0 25 5 28 10 4 6 -10 10 -34 10 -23 0 -41 3 -41 8 0 4 22 5 50 4 45 -4 49 -6 39 -23z m107 -6 c-23 -94 -27 -103 -46 -103 -12 0 -20 7 -20 18 0 13 2 14 9 3 14 -22 27 -5 40 54 7 30 15 55 18 55 3 0 2 -12 -1 -27z m-580 -15 c-13 -19 -23 -24 -46 -20 -18 3 -30 0 -30 -7 0 -6 4 -11 10 -11 15 0 50 -33 50 -47 0 -7 5 -13 11 -13 6 0 9 15 8 35 -3 27 2 39 19 51 22 15 22 15 22 -35 0 -75 23 -67 45 14 10 36 20 63 22 61 2 -2 -4 -34 -14 -70 -15 -57 -20 -66 -38 -64 -16 2 -21 12 -23 46 -4 49 -22 47 -22 -3 0 -39 -18 -55 -35 -32 -7 10 -17 17 -24 17 -6 0 -11 5 -11 11 0 7 -7 17 -17 24 -22 16 -8 35 27 35 19 0 33 7 40 21 7 11 14 18 17 16 2 -3 -3 -16 -11 -29z m769 -68 c7 0 16 6 18 13 3 7 6 5 6 -5 1 -13 -7 -18 -24 -18 -23 0 -25 4 -25 46 0 51 -19 52 -21 1 l-1 -32 -7 30 c-5 23 -2 34 14 47 20 16 20 15 23 -33 2 -33 7 -49 17 -49z m225 43 c0 -45 24 -42 38 5 l11 37 -6 -35 c-7 -45 -10 -50 -34 -50 -16 0 -19 7 -19 40 0 22 -4 40 -10 40 -5 0 -10 -5 -10 -11 0 -5 -5 -7 -12 -3 -7 5 -5 11 7 21 24 16 35 2 35 -44z m198 50 c-16 -2 -40 -2 -55 0 -16 2 -3 4 27 4 30 0 43 -2 28 -4z m150 0 c-15 -2 -42 -2 -60 0 -18 2 -6 4 27 4 33 0 48 -2 33 -4z m140 0 c-16 -2 -40 -2 -55 0 -16 2 -3 4 27 4 30 0 43 -2 28 -4z m150 0 c-16 -2 -40 -2 -55 0 -16 2 -3 4 27 4 30 0 43 -2 28 -4z m140 0 c-16 -2 -40 -2 -55 0 -16 2 -3 4 27 4 30 0 43 -2 28 -4z m150 0 c-16 -2 -40 -2 -55 0 -16 2 -3 4 27 4 30 0 43 -2 28 -4z m140 0 c-16 -2 -40 -2 -55 0 -16 2 -3 4 27 4 30 0 43 -2 28 -4z m-1834 -26 c-3 -8 -16 -12 -33 -9 -16 2 -32 -1 -35 -7 -4 -6 -1 -11 8 -11 8 0 26 -13 39 -30 22 -25 26 -27 30 -12 4 13 5 11 6 -5 1 -26 -17 -31 -25 -8 -4 8 -10 15 -15 15 -13 0 -63 50 -56 57 4 3 24 9 44 13 21 4 39 8 40 9 1 0 0 -5 -3 -12z m55 6 c-1 -5 -1 -27 0 -50 1 -45 24 -61 35 -25 4 13 4 13 3 -3 -1 -12 -11 -21 -25 -23 -20 -3 -22 1 -22 44 0 37 -3 45 -12 36 -7 -7 -17 -12 -22 -12 -6 1 0 10 13 20 25 22 32 24 30 13z m-791 -47 c6 -30 -12 -38 -93 -37 -69 0 -80 -2 -111 -27 -48 -38 -46 -70 9 -116 23 -20 39 -36 35 -36 -5 0 -26 16 -48 36 -53 48 -54 81 -3 123 35 29 43 31 120 31 76 0 83 2 83 20 0 19 -7 20 -96 20 l-96 0 -49 -41 c-47 -39 -49 -43 -49 -93 0 -50 1 -53 49 -89 48 -37 49 -37 145 -37 77 0 96 3 96 15 0 11 -17 15 -72 18 l-73 3 78 2 c76 2 77 2 77 -23 l0 -25 -103 0 c-100 0 -103 1 -140 31 -41 34 -99 45 -155 29 -47 -13 -57 1 -57 83 0 72 11 86 54 72 11 -3 40 -7 64 -9 39 -2 50 2 88 36 l44 38 100 -3 c88 -2 100 -4 103 -21z m839 2 c-3 -8 -6 -5 -6 6 -1 11 2 17 5 13 3 -3 4 -12 1 -19z m-999 -59 c-23 -13 -25 -101 -4 -118 10 -8 48 -11 114 -9 55 2 98 0 95 -4 -2 -5 -47 -8 -100 -8 -117 0 -133 10 -133 80 0 44 13 70 35 70 5 0 2 -5 -7 -11z m212 -4 c0 -12 13 -15 60 -15 l60 0 0 -45 0 -45 -67 2 -68 2 63 3 62 4 0 34 0 35 -59 0 c-50 0 -59 3 -64 20 -3 11 -1 20 4 20 5 0 9 -7 9 -15z m-90 -55 l0 -50 -50 0 -50 0 0 50 0 50 50 0 50 0 0 -50z m979 22 c0 -14 -2 -13 -9 3 -5 11 -9 15 -9 9 -1 -15 -36 -54 -49 -54 -6 0 -14 -5 -18 -11 -5 -8 4 -10 28 -7 30 3 37 0 51 -24 16 -28 16 -28 -11 -27 -22 0 -23 2 -9 8 16 6 17 9 5 18 -7 6 -26 13 -42 15 -35 4 -45 24 -17 33 12 3 21 13 21 21 0 8 4 13 9 9 6 -3 15 4 21 15 12 23 30 18 29 -8z m78 3 c1 -16 1 -16 -3 -2 -3 9 -12 17 -19 17 -10 0 -15 -16 -17 -51 l-3 -51 -22 18 c-17 14 -20 23 -13 34 8 12 10 11 10 -7 0 -13 5 -23 10 -23 6 0 10 17 10 38 0 21 3 42 7 46 13 13 38 1 40 -19z m161 -21 c5 -49 14 -62 22 -34 7 23 8 23 9 -8 1 -33 1 -33 -22 -16 -18 14 -22 25 -19 53 l4 36 -30 -35 c-17 -19 -33 -32 -37 -29 -8 9 47 68 60 65 6 -1 11 -16 13 -32z m82 -6 c7 -24 20 -74 31 -113 27 -99 28 -97 -42 -73 -33 11 -58 22 -56 24 2 2 25 -3 51 -12 26 -9 49 -14 51 -12 2 2 -8 51 -24 108 -27 100 -44 131 -54 93 -4 -14 -5 -13 -6 5 -1 16 5 22 19 22 14 0 22 -11 30 -42z m143 25 c-7 -2 -13 -10 -13 -17 0 -13 -35 -46 -50 -46 -6 0 -10 -5 -10 -11 0 -7 12 -10 30 -7 23 4 33 -1 45 -19 l15 -23 -50 0 c-82 0 -64 -23 51 -64 55 -20 104 -36 109 -36 5 0 4 15 -1 32 -5 18 -9 37 -8 43 1 14 15 -24 23 -62 l8 -33 -122 43 c-104 36 -120 45 -118 62 2 16 12 21 46 23 46 3 49 22 3 22 -16 0 -34 7 -41 15 -8 10 -9 15 -1 15 6 0 25 16 43 35 18 19 38 34 43 34 6 0 4 -3 -2 -6z m86 -10 c0 -11 -3 -13 -6 -5 -2 6 -11 12 -19 12 -10 0 -14 -14 -14 -50 l0 -50 -23 15 c-19 12 -23 21 -18 48 l6 32 3 -30 c6 -48 22 -54 22 -9 0 45 5 54 32 54 11 0 18 -7 17 -17z m160 -15 c-1 -17 -2 -19 -6 -6 -4 15 -8 13 -30 -12 -13 -17 -31 -30 -39 -30 -9 0 -12 -5 -8 -11 3 -6 19 -9 34 -7 19 3 31 -1 39 -14 17 -27 15 -28 -34 -28 -56 0 -61 -23 -9 -40 47 -16 39 -23 -9 -8 -29 9 -37 16 -37 35 0 21 5 23 46 23 27 0 43 4 39 10 -3 6 -19 10 -34 10 -44 0 -55 19 -25 47 14 12 29 23 33 23 5 0 11 7 15 15 8 23 26 18 25 -7z m74 15 c3 -5 7 -24 10 -43 l6 -35 -11 38 c-17 54 -36 47 -40 -13 -3 -50 -3 -50 -26 -35 -12 9 -20 21 -16 26 3 6 12 3 20 -8 12 -16 13 -13 14 30 0 40 3 47 19 47 11 0 22 -3 24 -7z m165 -39 c5 -49 14 -62 22 -34 l8 25 1 -27 c1 -31 -2 -33 -27 -17 -13 8 -17 20 -14 48 l4 36 -31 -32 c-17 -18 -36 -33 -42 -33 -5 0 -7 -4 -4 -10 3 -5 19 -10 35 -10 19 0 33 -7 40 -19 9 -18 6 -20 -37 -23 -54 -3 -65 -19 -26 -36 25 -10 25 -11 3 -5 -33 7 -42 16 -34 36 4 12 18 17 45 17 21 0 39 5 39 10 0 6 -12 10 -27 10 -57 0 -61 15 -18 58 46 46 59 47 63 6z m81 -1 c15 -52 12 -67 -3 -19 -14 44 -32 57 -39 29 -4 -14 -5 -13 -6 5 -1 16 5 22 19 22 14 0 22 -11 29 -37z m-942 5 c-3 -8 -6 -5 -6 6 -1 11 2 17 5 13 3 -3 4 -12 1 -19z m487 -58 c4 -24 3 -29 -3 -15 -4 11 -11 36 -15 55 -4 24 -3 29 3 15 4 -11 11 -36 15 -55z m-389 30 c24 0 38 -6 45 -19 6 -11 6 -22 1 -25 -5 -3 -11 3 -14 13 -3 13 -15 21 -38 23 -18 2 -34 9 -35 16 -1 7 0 8 3 2 2 -5 20 -10 38 -10z m-71 -60 c4 -24 3 -29 -3 -15 -4 11 -11 36 -15 55 -4 24 -3 29 3 15 4 -11 11 -36 15 -55z m-193 31 c-26 -17 -4 -34 89 -67 110 -39 110 -39 111 -16 0 12 3 10 10 -7 5 -13 8 -25 6 -27 -2 -2 -56 15 -120 37 -87 31 -117 46 -117 59 0 19 9 30 24 30 6 0 5 -4 -3 -9z m907 -72 l19 -77 -74 25 c-41 14 -72 27 -70 29 2 2 30 -5 62 -16 32 -11 60 -18 62 -16 2 2 -3 31 -11 64 -16 61 -19 78 -12 71 2 -2 13 -38 24 -80z m-650 64 c-47 -7 -41 -30 13 -48 48 -16 71 -33 27 -19 -68 20 -87 32 -81 53 4 16 13 21 37 20 29 -2 29 -2 4 -6z m869 -25 c-3 -8 -6 -5 -6 6 -1 11 2 17 5 13 3 -3 4 -12 1 -19z m29 -115 c-2 -3 -41 7 -86 22 -45 15 -79 29 -77 31 2 2 37 -7 77 -21 40 -14 75 -24 77 -22 1 2 -2 19 -7 38 -6 18 -10 38 -9 44 1 5 8 -12 16 -38 8 -27 12 -51 9 -54z"/>
    <path d="M295 572 c-13 -9 -13 -114 0 -128 7 -8 23 -8 57 2 27 7 48 8 48 3 0 -5 5 -9 10 -9 6 0 10 28 10 64 0 60 -1 64 -22 63 -13 -1 -39 2 -58 6 -19 4 -39 3 -45 -1z m115 -63 c0 -33 -2 -35 -30 -35 -32 0 -46 21 -36 54 4 12 16 18 36 17 28 0 30 -3 30 -36z"/>
    <path d="M350 510 c0 -15 7 -20 25 -20 18 0 25 5 25 20 0 15 -7 20 -25 20 -18 0 -25 -5 -25 -20z"/>
    <path d="M600 510 l0 -40 40 0 40 0 0 40 0 40 -40 0 -40 0 0 -40z"/>
  </g>
</svg>